<?xml version="1.0" encoding="UTF-8"?>
<svg version="1.1" xmlns="http://www.w3.org/2000/svg" width="1172" height="1064">
<path d="M0 0 C6.87940927 6.26855264 10.93461811 14.18052621 12.23046875 23.41015625 C12.79175487 36.39457526 7.27889662 45.36733509 -1.15234375 54.68359375 C-5.95631887 59.81070388 -10.95023894 64.7522102 -15.9261322 69.71134949 C-17.42194958 71.20947447 -18.91733121 72.70803463 -20.41231734 74.20698911 C-24.49961188 78.30259816 -28.59307845 82.39198826 -32.68763554 86.48033488 C-37.11037646 90.89853895 -41.52734401 95.32250848 -45.94506836 99.74572754 C-54.09022966 107.89925685 -62.23991884 116.04823747 -70.39200529 124.19484153 C-77.9185524 131.71635182 -85.44323087 139.2397253 -92.96606636 146.76494789 C-93.46562864 147.26466294 -93.96519092 147.76437799 -94.47989146 148.27923593 C-96.50782368 150.30779084 -98.53574885 152.33635281 -100.5636624 154.3649264 C-119.56570066 173.37307569 -138.57355491 192.3753995 -157.58403514 211.37510534 C-174.48093468 228.26250128 -191.37263816 245.1550782 -208.26000977 262.05200195 C-227.23922149 281.0419132 -246.2216473 300.02860201 -265.20930296 319.01007062 C-267.23131884 321.03144506 -269.25332684 323.05282737 -271.2753315 325.07421303 C-271.77319547 325.57191885 -272.27105945 326.06962467 -272.78401021 326.58241248 C-280.31146746 334.10759206 -287.83644883 341.6352415 -295.36024284 349.16408348 C-303.90563776 357.71518324 -312.45466473 366.26262923 -321.0082544 374.80553355 C-325.37553988 379.16754377 -329.7411757 383.53117293 -334.10253334 387.89911079 C-338.08813109 391.89063119 -342.07824882 395.87757217 -346.07215566 399.86077801 C-347.52251842 401.30889114 -348.97116562 402.75872477 -350.41799461 404.21036854 C-352.37196152 406.17034267 -354.33187143 408.12416529 -356.29351711 410.07644939 C-356.86485916 410.65247378 -357.43620121 411.22849816 -358.02485666 411.82197782 C-361.92404265 415.68359375 -361.92404265 415.68359375 -364.15234375 415.68359375 C-364.49265625 416.51890625 -364.49265625 416.51890625 -364.83984375 417.37109375 C-366.52323842 420.33707483 -368.71213804 422.29861194 -371.15234375 424.68359375 C-372.04953125 425.58078125 -372.94671875 426.47796875 -373.87109375 427.40234375 C-382.15234375 435.68359375 -382.15234375 435.68359375 -384.890625 438.4140625 C-386.22703955 439.75509333 -387.54975316 441.1104409 -388.83984375 442.49609375 C-390.15234375 443.68359375 -390.15234375 443.68359375 -392.15234375 443.68359375 C-392.4052417 444.26246338 -392.65813965 444.84133301 -392.91870117 445.43774414 C-394.29854306 447.94974999 -395.84991016 449.60837801 -397.890625 451.6171875 C-398.62861328 452.34873047 -399.36660156 453.08027344 -400.12695312 453.83398438 C-400.89845703 454.58873047 -401.66996094 455.34347656 -402.46484375 456.12109375 C-403.22474609 456.87197266 -403.98464844 457.62285156 -404.76757812 458.39648438 C-406.89252242 460.49558226 -409.02160449 462.59038062 -411.15234375 464.68359375 C-415.51709979 468.97966264 -419.5877242 473.48345203 -423.65234375 478.0625 C-426.01211974 480.53657764 -428.46673218 482.57865495 -431.15234375 484.68359375 C-432.50621311 486.33362203 -433.83912517 488.00103245 -435.15234375 489.68359375 C-437.82776936 492.50363696 -440.60379005 495.07898528 -443.58984375 497.55859375 C-446.67652094 500.15649126 -449.1912577 502.99264822 -451.75390625 506.09765625 C-453.65630782 508.25512843 -455.90911443 509.88901029 -458.15234375 511.68359375 C-459.71035804 513.40321058 -461.19554756 515.17278402 -462.68359375 516.953125 C-465.53277777 520.31000937 -468.59911533 523.23860567 -472.02734375 525.99609375 C-475.23127251 528.60700742 -477.81861148 531.63635517 -480.5 534.76953125 C-483.5998485 538.3603723 -486.94953302 541.53163953 -490.58984375 544.55859375 C-493.65785214 547.1474338 -496.20275984 549.95433672 -498.765625 553.03515625 C-502.03441867 556.92087718 -505.77137339 560.23179934 -509.58984375 563.55859375 C-512.97670665 566.54105511 -515.95535072 569.61800604 -518.82421875 573.09375 C-521.60314634 576.42028979 -524.65461145 579.28324386 -528.02734375 581.99609375 C-531.23127251 584.60700742 -533.81861148 587.63635517 -536.5 590.76953125 C-539.58080999 594.33831824 -542.90471561 597.49333754 -546.52734375 600.49609375 C-549.78997295 603.2524529 -552.4990068 606.28710301 -555.26171875 609.53515625 C-558.69811227 613.44014888 -562.44799754 617.035374 -566.15234375 620.68359375 C-567.01859375 621.57046875 -567.88484375 622.45734375 -568.77734375 623.37109375 C-570.64684785 625.19140038 -572.52201465 626.83681702 -574.52734375 628.49609375 C-577.78997295 631.2524529 -580.4990068 634.28710301 -583.26171875 637.53515625 C-586.69811227 641.44014888 -590.44799754 645.035374 -594.15234375 648.68359375 C-595.01859375 649.57046875 -595.88484375 650.45734375 -596.77734375 651.37109375 C-598.64684785 653.19140038 -600.52201465 654.83681702 -602.52734375 656.49609375 C-605.76095863 659.22901988 -608.44128286 662.23323598 -611.18359375 665.44921875 C-614.94961648 669.72335565 -618.90042114 673.89028802 -623.15234375 677.68359375 C-623.81234375 677.68359375 -624.47234375 677.68359375 -625.15234375 677.68359375 C-625.41660156 678.286875 -625.68085937 678.89015625 -625.953125 679.51171875 C-627.20989449 681.78782245 -628.30674537 682.85177808 -630.33984375 684.43359375 C-633.74218779 687.22761848 -636.55407681 690.28712416 -639.37890625 693.65625 C-641.52096809 696.1049947 -643.85182429 698.38307429 -646.15234375 700.68359375 C-521.41234375 700.68359375 -396.67234375 700.68359375 -268.15234375 700.68359375 C-273.10234375 695.73359375 -278.05234375 690.78359375 -283.15234375 685.68359375 C-311.15234375 657.68359375 -311.15234375 657.68359375 -313.41810608 655.41188049 C-316.43194543 652.40460061 -319.46426271 649.41678256 -322.49975586 646.43139648 C-328.77493508 640.25450524 -335.03462508 634.06215255 -341.28581905 627.86099148 C-345.05953927 624.11855368 -348.83865404 620.38192034 -352.63061523 616.65795898 C-356.31316244 613.04100177 -359.98049652 609.40922505 -363.63812447 605.76707649 C-365.02617865 604.3900222 -366.41946214 603.01821638 -367.81825066 601.65206718 C-386.33236546 583.5530734 -386.33236546 583.5530734 -387.3203125 570.45703125 C-387.41598286 558.70871143 -385.27868203 549.13871584 -376.96875 540.3828125 C-367.16550317 531.3400199 -358.37031941 530.19074143 -345.55078125 530.41015625 C-336.17148109 530.80868772 -330.77365833 535.48429702 -324.15234375 541.68359375 C-323.26546875 542.38484375 -322.37859375 543.08609375 -321.46484375 543.80859375 C-317.24914308 547.22672943 -313.71411968 551.16976483 -310.15234375 555.24609375 C-307.34043539 558.44168306 -304.48431588 561.03510308 -301.15234375 563.68359375 C-300.05150511 564.91820519 -298.97015201 566.17030572 -297.90234375 567.43359375 C-295.33144882 570.45160084 -292.65220394 573.09187781 -289.65234375 575.68359375 C-285.99766837 578.84187859 -282.88097639 582.19392284 -279.76953125 585.87890625 C-277.47497116 588.43950229 -274.79507901 590.49068576 -272.15234375 592.68359375 C-270.57969686 594.41270296 -269.08374184 596.19093511 -267.58984375 597.98828125 C-265.57797138 600.36097855 -263.3793539 602.51368643 -261.15234375 604.68359375 C-260.40984375 605.44671875 -259.66734375 606.20984375 -258.90234375 606.99609375 C-255.70604541 610.11974895 -252.34447668 613.01395994 -248.9453125 615.9140625 C-248.35363281 616.49800781 -247.76195312 617.08195313 -247.15234375 617.68359375 C-247.15234375 618.34359375 -247.15234375 619.00359375 -247.15234375 619.68359375 C-246.16234375 620.01359375 -245.17234375 620.34359375 -244.15234375 620.68359375 C-242.90432408 622.12866916 -241.6611066 623.57897693 -240.46875 625.0703125 C-237.68917552 628.47673463 -234.55812243 631.35389857 -231.15234375 634.12109375 C-228.07999533 636.74539136 -225.72721503 639.58054374 -223.15234375 642.68359375 C-222.34796875 643.32296875 -221.54359375 643.96234375 -220.71484375 644.62109375 C-217.89002195 646.89473081 -215.76143712 649.38953938 -213.484375 652.1953125 C-212.2015443 653.8124192 -212.2015443 653.8124192 -210.15234375 654.68359375 C-210.15234375 655.34359375 -210.15234375 656.00359375 -210.15234375 656.68359375 C-209.55679688 656.94011719 -208.96125 657.19664062 -208.34765625 657.4609375 C-205.93994939 658.80188456 -204.74628739 660.10821158 -203.02734375 662.24609375 C-199.51255388 666.4213301 -195.61455215 669.95000635 -191.484375 673.5078125 C-189.09511522 675.73698787 -187.17855438 678.12660861 -185.15234375 680.68359375 C-184.20359375 681.42609375 -183.25484375 682.16859375 -182.27734375 682.93359375 C-174.61202656 689.15080316 -169.18724211 700.14235098 -167.15234375 709.68359375 C-165.71570708 726.33584946 -167.06173489 741.57785847 -177.7890625 755.11328125 C-187.57173792 765.75295137 -197.57058655 772.11731619 -212.217016 772.77652016 C-214.41704208 772.81322154 -216.61506781 772.82009229 -218.8153944 772.81502151 C-220.0744833 772.81810047 -220.0744833 772.81810047 -221.35900834 772.82124162 C-224.16637103 772.82688753 -226.97368429 772.82545736 -229.78105164 772.82403564 C-231.81634302 772.82662065 -233.85163391 772.82963419 -235.88692409 772.83303905 C-241.47613131 772.84109618 -247.06532569 772.8428979 -252.65453804 772.84363651 C-258.68401742 772.84548928 -264.71349016 772.85303768 -270.7429657 772.85977173 C-284.61190354 772.87405342 -298.48083959 772.87988009 -312.34978298 772.88446367 C-319.2065037 772.88680165 -326.06322358 772.8904045 -332.91994365 772.89415905 C-356.40150882 772.90699184 -379.88307354 772.91771181 -403.36464214 772.92116165 C-404.83782263 772.92138328 -406.31100312 772.92160507 -407.78418361 772.921827 C-409.260869 772.92204764 -410.73755439 772.92226812 -412.21423978 772.92248845 C-415.1765993 772.922931 -418.13895883 772.92337811 -421.10131836 772.92382812 C-421.83580769 772.92393752 -422.57029702 772.92404691 -423.32704361 772.92415961 C-447.14261997 772.92779021 -470.9581659 772.94371175 -494.7737306 772.96701849 C-519.96658079 772.99162792 -545.15941359 773.00533498 -570.35227615 773.00652957 C-573.11902957 773.00670102 -575.88578298 773.00691644 -578.65253639 773.007164 C-579.67437815 773.00724765 -579.67437815 773.00724765 -580.71686317 773.007333 C-591.66730432 773.00848238 -602.61771415 773.01949466 -613.56814474 773.03405106 C-624.57904162 773.04843452 -635.58990375 773.05139056 -646.60080829 773.04361108 C-652.56287324 773.03970557 -658.52483307 773.04062955 -664.48688507 773.05466843 C-669.94913919 773.0674127 -675.41120925 773.06620505 -680.87346313 773.05407771 C-682.84518022 773.05212167 -684.81691037 773.05519484 -686.78860911 773.06392208 C-705.48665567 773.14141759 -718.7392358 771.21307992 -732.83203125 758.046875 C-742.44062142 748.26034797 -747.7073209 734.83657606 -747.90234375 721.18359375 C-747.64923508 706.53733497 -741.88236857 694.48528215 -732.15234375 683.68359375 C-730.41277228 682.03241514 -728.64777308 680.51458419 -726.76171875 679.03515625 C-725.01865463 677.57132085 -723.65645791 676.00548308 -722.21484375 674.24609375 C-720.0767603 671.65430559 -717.84490711 669.47575737 -715.27734375 667.30859375 C-712.297547 664.78199802 -709.70726382 662.13928559 -707.15234375 659.18359375 C-704.03516033 655.58260386 -700.76530813 652.43461248 -697.109375 649.38671875 C-694.67162516 647.26524384 -692.4211355 644.9814864 -690.15234375 642.68359375 C-688.73645327 641.26615132 -687.31970375 639.84956675 -685.90234375 638.43359375 C-685.12890625 637.66015625 -684.35546875 636.88671875 -683.55859375 636.08984375 C-658.71765137 611.24890137 -633.87670898 586.40795898 -609.0357666 561.5670166 C-608.54990743 561.08111651 -608.06404825 560.59521643 -607.56346607 560.09459209 C-606.18836875 558.71961558 -604.81284096 557.34506961 -603.43730164 555.97053528 C-600.84819185 553.37917781 -598.27558975 550.77194151 -595.703125 548.1640625 C-594.15563646 546.60185488 -592.60720671 545.04058706 -591.05834961 543.47973633 C-589.98887507 542.40010285 -588.92118736 541.31869664 -587.85522461 540.2355957 C-586.30916781 538.66540764 -584.75685147 537.10165686 -583.203125 535.5390625 C-582.28184814 534.60731201 -581.36057129 533.67556152 -580.41137695 532.71557617 C-578.15234375 530.68359375 -578.15234375 530.68359375 -576.15234375 530.68359375 C-575.93320312 530.13993164 -575.7140625 529.59626953 -575.48828125 529.03613281 C-573.7112946 525.90692168 -571.311294 523.55673976 -568.77734375 521.04296875 C-568.25221191 520.51592346 -567.72708008 519.98887817 -567.18603516 519.44586182 C-566.07895492 518.33742447 -564.96936045 517.23149329 -563.85742188 516.12792969 C-562.151274 514.43253074 -560.45610328 512.72667765 -558.76171875 511.01953125 C-557.68423483 509.94336817 -556.60613108 508.86782524 -555.52734375 507.79296875 C-555.01896973 507.28054626 -554.5105957 506.76812378 -553.98681641 506.24017334 C-550.38228466 502.68359375 -550.38228466 502.68359375 -548.15234375 502.68359375 C-547.93320312 502.13993164 -547.7140625 501.59626953 -547.48828125 501.03613281 C-545.7112946 497.90692168 -543.311294 495.55673976 -540.77734375 493.04296875 C-540.25221191 492.51592346 -539.72708008 491.98887817 -539.18603516 491.44586182 C-538.07895492 490.33742447 -536.96936045 489.23149329 -535.85742188 488.12792969 C-534.151274 486.43253074 -532.45610328 484.72667765 -530.76171875 483.01953125 C-529.68423483 481.94336817 -528.60613108 480.86782524 -527.52734375 479.79296875 C-527.01896973 479.28054626 -526.5105957 478.76812378 -525.98681641 478.24017334 C-522.38228466 474.68359375 -522.38228466 474.68359375 -520.15234375 474.68359375 C-519.88786942 474.09380234 -519.62339508 473.50401093 -519.35090637 472.89634705 C-518.10883722 470.60327319 -516.82107478 469.11080949 -514.9753418 467.27954102 C-514.3309465 466.63529678 -513.68655121 465.99105255 -513.02262878 465.32728577 C-511.97888847 464.29902931 -511.97888847 464.29902931 -510.9140625 463.25 C-510.19628128 462.53504868 -509.47850006 461.82009735 -508.7389679 461.08348083 C-506.44391596 458.79961037 -504.14202099 456.52277942 -501.83984375 454.24609375 C-500.30097314 452.7172589 -498.76255645 451.18796701 -497.22460938 449.65820312 C-494.39172332 446.84163432 -491.55624674 444.02773221 -488.7175293 441.21704102 C-485.85394634 438.38100283 -482.9995394 435.53609858 -480.15234375 432.68359375 C-401.15234375 353.68359375 -401.15234375 353.68359375 -398.87333679 351.40657043 C-395.9166064 348.44768454 -392.96620409 345.48258736 -390.0168457 342.51635742 C-384.01056263 336.47750696 -377.99927792 330.44366145 -371.98507404 324.4126997 C-368.35093031 320.76806919 -364.71870023 317.12157101 -361.09057617 313.47094727 C-357.57489973 309.93361513 -354.05442597 306.40112486 -350.53050804 302.87200356 C-349.18787892 301.52567082 -347.84701523 300.17757519 -346.50792885 298.82771873 C-344.64309017 296.94845854 -342.77218483 295.07545276 -340.8996582 293.20385742 C-340.34430893 292.6413176 -339.78895966 292.07877777 -339.21678162 291.49919128 C-335.38045374 287.68359375 -335.38045374 287.68359375 -333.15234375 287.68359375 C-332.82036987 286.86266235 -332.82036987 286.86266235 -332.48168945 286.02514648 C-330.73659347 282.9512777 -328.38639423 280.6705375 -325.8828125 278.21875 C-325.10578728 277.44596962 -325.10578728 277.44596962 -324.31306458 276.65757751 C-322.6599766 275.01564425 -321.00008198 273.38079356 -319.33984375 271.74609375 C-318.23456504 270.65085566 -317.12974247 269.55515704 -316.02539062 268.45898438 C-313.9835299 266.43340445 -311.93899906 264.41060433 -309.89135742 262.39086914 C-305.46280086 258.01362841 -301.0758638 253.59699932 -296.703125 249.1640625 C-295.15563646 247.60185488 -293.60720671 246.04058706 -292.05834961 244.47973633 C-290.98887507 243.40010285 -289.92118736 242.31869664 -288.85522461 241.2355957 C-287.30916781 239.66540764 -285.75685147 238.10165686 -284.203125 236.5390625 C-283.28184814 235.60731201 -282.36057129 234.67556152 -281.41137695 233.71557617 C-279.15234375 231.68359375 -279.15234375 231.68359375 -277.15234375 231.68359375 C-276.94375732 231.15034485 -276.7351709 230.61709595 -276.52026367 230.06768799 C-274.60748658 226.73398345 -271.97216568 224.22538342 -269.265625 221.53808594 C-268.66382416 220.93278046 -268.06202332 220.32747498 -267.44198608 219.7038269 C-265.45460245 217.70765163 -263.46000545 215.71886772 -261.46484375 213.73046875 C-260.0821451 212.34642307 -258.69974348 210.9620806 -257.31762695 209.57745361 C-254.42235053 206.6792297 -251.5234896 203.784652 -248.62207031 200.89257812 C-244.89591366 197.17783702 -241.17883488 193.45416198 -237.46437073 189.72773361 C-234.61305797 186.86921036 -231.7570193 184.01544742 -228.89950562 181.16312408 C-227.52644851 179.79140461 -226.15488508 178.41818837 -224.78482056 177.04347992 C-222.87435279 175.12795796 -220.95763498 173.21892294 -219.0390625 171.31152344 C-218.46964935 170.73806183 -217.90023621 170.16460022 -217.31356812 169.57376099 C-213.3808746 165.68359375 -213.3808746 165.68359375 -211.15234375 165.68359375 C-210.93320312 165.13993164 -210.7140625 164.59626953 -210.48828125 164.03613281 C-208.7112946 160.90692168 -206.311294 158.55673976 -203.77734375 156.04296875 C-202.989646 155.25240082 -202.989646 155.25240082 -202.18603516 154.44586182 C-201.07895492 153.33742447 -199.96936045 152.23149329 -198.85742188 151.12792969 C-197.151274 149.43253074 -195.45610328 147.72667765 -193.76171875 146.01953125 C-192.68423483 144.94336817 -191.60613108 143.86782524 -190.52734375 142.79296875 C-190.01896973 142.28054626 -189.5105957 141.76812378 -188.98681641 141.24017334 C-185.38228466 137.68359375 -185.38228466 137.68359375 -183.15234375 137.68359375 C-182.93320312 137.13993164 -182.7140625 136.59626953 -182.48828125 136.03613281 C-180.7112946 132.90692168 -178.311294 130.55673976 -175.77734375 128.04296875 C-174.989646 127.25240082 -174.989646 127.25240082 -174.18603516 126.44586182 C-173.07895492 125.33742447 -171.96936045 124.23149329 -170.85742188 123.12792969 C-169.151274 121.43253074 -167.45610328 119.72667765 -165.76171875 118.01953125 C-164.68423483 116.94336817 -163.60613108 115.86782524 -162.52734375 114.79296875 C-162.01896973 114.28054626 -161.5105957 113.76812378 -160.98681641 113.24017334 C-157.38228466 109.68359375 -157.38228466 109.68359375 -155.15234375 109.68359375 C-154.93141556 109.13734848 -154.71048737 108.59110321 -154.48286438 108.02830505 C-152.73029346 104.93983521 -150.37149404 102.64024237 -147.86401367 100.16821289 C-147.32555313 99.6294603 -146.78709259 99.0907077 -146.23231506 98.53562927 C-144.45384788 96.75855342 -142.66840107 94.98866784 -140.8828125 93.21875 C-139.64167841 91.98134928 -138.40098755 90.74350386 -137.16072083 89.50523376 C-133.89387343 86.24601836 -130.62107086 82.99284732 -127.34698486 79.74090576 C-124.02787765 76.44218656 -120.71435151 73.13787224 -117.40039062 69.83398438 C-112.03939192 64.49054983 -106.67504365 59.15050659 -101.30606079 53.81509399 C-96.68191635 49.21907653 -92.07252302 44.60920516 -87.48901367 39.97265625 C-83.05312152 35.48875872 -78.61062993 31.01150352 -74.1632185 26.53903198 C-71.48296402 23.84311966 -68.80559391 21.14446561 -66.13452148 18.43945312 C-63.53536509 15.80750423 -60.92877088 13.18313036 -58.3170414 10.56365967 C-57.33012888 9.57124989 -56.34583767 8.57622544 -55.36437035 7.57843018 C-39.1907148 -8.85368192 -19.61079591 -15.634054 0 0 Z " fill="#B4B4B4" transform="translate(954.15234375,291.31640625)"/>
<path d="M0 0 C2.05595942 -0.00461361 4.11191553 -0.01096961 6.1678648 -0.01890898 C11.79565945 -0.03556207 17.42318177 -0.0273741 23.05097723 -0.0149641 C29.12878074 -0.00589953 35.20653801 -0.01989034 41.28433228 -0.03088379 C52.49505732 -0.04763207 63.70569548 -0.04619557 74.9164187 -0.03523792 C85.2741529 -0.02516406 95.63185542 -0.0225543 105.98959351 -0.02732849 C107.02134499 -0.0277868 107.02134499 -0.0277868 108.07393994 -0.02825437 C110.86628905 -0.02949978 113.65863815 -0.03077339 116.45098723 -0.03209343 C142.62972925 -0.04432139 168.80841624 -0.03324835 194.98714976 -0.01170584 C218.23047632 0.0072757 241.47371522 0.00557715 264.71704102 -0.0135498 C290.84879431 -0.03498193 316.980499 -0.04345409 343.11225986 -0.03110075 C345.89943503 -0.02981794 348.68661021 -0.02856657 351.4737854 -0.02732849 C352.16002726 -0.02701218 352.84626912 -0.02669587 353.55330618 -0.02636998 C363.90293159 -0.02182569 374.2525218 -0.02713072 384.60214233 -0.0372467 C396.37358736 -0.04869526 408.14494871 -0.04541578 419.91638732 -0.02412373 C425.92090713 -0.01362033 431.92524916 -0.00947962 437.92976761 -0.02272034 C443.42949796 -0.0346644 448.9288862 -0.02804808 454.42858565 -0.00681013 C456.41496494 -0.00235266 458.40137331 -0.00459102 460.38773382 -0.01431328 C474.98476613 -0.08026193 486.84069095 1.22820797 498.73168945 10.50793457 C499.87444336 11.37031738 499.87444336 11.37031738 501.0402832 12.25012207 C511.59970791 20.83299341 516.41214838 32.30864129 518.73168945 45.50793457 C520.36372207 61.75407741 515.1121616 75.44111762 505.0871582 87.98840332 C502.51652719 90.73808327 499.76089412 93.12625426 496.91015625 95.57849121 C493.12494791 98.93100735 489.59760458 102.53823759 486.04418945 106.13293457 C485.31135742 106.87027832 484.57852539 107.60762207 483.82348633 108.36730957 C482.45877057 109.74063941 481.09509709 111.11500654 479.73291016 112.49084473 C477.40572964 114.83647916 475.06910666 117.1725014 472.73168945 119.50793457 C471.87381836 120.36580566 471.01594727 121.22367676 470.13208008 122.10754395 C449.73168945 142.50793457 449.73168945 142.50793457 446.99267578 145.2310791 C445.17807279 147.05841821 443.5333151 148.88356443 441.91918945 150.88293457 C439.1628303 154.14556377 436.12818019 156.85459762 432.88012695 159.61730957 C428.97531162 163.05354707 425.37834489 166.80235651 421.73168945 170.50793457 C420.06581801 172.17539609 418.39903493 173.84194699 416.73168945 175.50793457 C415.87381836 176.36580566 415.01594727 177.22367676 414.13208008 178.10754395 C393.73168945 198.50793457 393.73168945 198.50793457 391.00634766 201.21740723 C388.46469539 203.77679132 386.17110781 206.47760214 383.8684082 209.25012207 C382.00447301 211.21969161 380.11201041 212.93473182 378.0559082 214.69543457 C375.00886445 217.32363708 372.15736318 220.05632528 369.36450195 222.95324707 C368.25268555 224.10373535 368.25268555 224.10373535 367.1184082 225.27746582 C365.61042095 226.84796032 364.11038441 228.42612789 362.6184082 230.01184082 C354.88466803 237.96003479 346.80115033 242.59608694 335.60668945 242.75793457 C323.69247457 242.58507208 316.15328239 239.08817604 307.73168945 230.50793457 C300.88660351 221.53144462 298.84573055 212.66815887 299.73168945 201.50793457 C301.33080811 191.66608609 306.70075639 183.36834518 314.73168945 177.50793457 C315.39168945 176.68293457 316.05168945 175.85793457 316.73168945 175.00793457 C318.73168945 172.50793457 318.73168945 172.50793457 321.16918945 170.57043457 C323.88773941 168.52101053 323.88773941 168.52101053 326.23168945 165.50793457 C328.56233205 162.71116345 330.8991857 160.75941191 333.73168945 158.50793457 C334.39168945 157.68293457 335.05168945 156.85793457 335.73168945 156.00793457 C337.73168945 153.50793457 337.73168945 153.50793457 340.16918945 151.57043457 C342.88773941 149.52101053 342.88773941 149.52101053 345.23168945 146.50793457 C347.56233205 143.71116345 349.8991857 141.75941191 352.73168945 139.50793457 C353.39168945 138.68293457 354.05168945 137.85793457 354.73168945 137.00793457 C356.8348858 134.37893914 359.11068489 132.60473822 361.73168945 130.50793457 C362.39168945 129.68293457 363.05168945 128.85793457 363.73168945 128.00793457 C365.8348858 125.37893914 368.11068489 123.60473822 370.73168945 121.50793457 C371.37106445 120.70355957 372.01043945 119.89918457 372.66918945 119.07043457 C375.05924936 116.1009662 377.80765733 113.94462801 380.73168945 111.50793457 C382.06996249 109.8452317 383.40358731 108.17877276 384.73168945 106.50793457 C386.39835612 105.17460124 388.06502279 103.8412679 389.73168945 102.50793457 C390.39168945 101.68293457 391.05168945 100.85793457 391.73168945 100.00793457 C393.73168945 97.50793457 393.73168945 97.50793457 396.16918945 95.57043457 C399.14670324 93.17389908 401.31747245 90.4653504 403.73168945 87.50793457 C407.5347521 83.49359067 411.66449996 79.89392813 415.84106445 76.27746582 C417.81076948 74.63929469 417.81076948 74.63929469 418.73168945 72.50793457 C293.33168945 72.50793457 167.93168945 72.50793457 38.73168945 72.50793457 C40.38168945 74.15793457 42.03168945 75.80793457 43.73168945 77.50793457 C65.57543945 99.35168457 65.57543945 99.35168457 67.19189453 100.97033691 C68.61011537 102.38653397 70.03579605 103.7952501 71.4621582 105.20324707 C73.27297842 107.04211785 74.92635664 108.87897248 76.54418945 110.88293457 C79.27711558 114.11654945 82.28133169 116.79687368 85.49731445 119.53918457 C89.77145136 123.3052073 93.93838373 127.25601196 97.73168945 131.50793457 C97.73168945 132.16793457 97.73168945 132.82793457 97.73168945 133.50793457 C98.63661133 133.90432129 98.63661133 133.90432129 99.55981445 134.30871582 C101.83591815 135.56548531 102.89987378 136.66233619 104.48168945 138.69543457 C106.60504607 141.29722015 108.79235782 143.51557574 111.3605957 145.67590332 C116.10950236 149.77277496 120.51031018 154.17601218 124.91918945 158.63293457 C125.6997168 159.41797363 126.48024414 160.2030127 127.28442383 161.01184082 C128.78169103 162.51799765 130.27807779 164.0250304 131.7734375 165.53308105 C136.11803347 169.92106436 136.11803347 169.92106436 140.5324707 174.23840332 C141.96973529 175.62367384 143.3526183 177.06472057 144.73168945 178.50793457 C144.73168945 179.16793457 144.73168945 179.82793457 144.73168945 180.50793457 C145.32860596 180.77887939 145.92552246 181.04982422 146.54052734 181.32897949 C148.7026386 182.49230375 150.08262931 183.62719911 151.7902832 185.37121582 C152.34135742 185.92873535 152.89243164 186.48625488 153.46020508 187.06066895 C154.30615234 187.93175293 154.30615234 187.93175293 155.16918945 188.82043457 C155.72928711 189.38955566 156.28938477 189.95867676 156.86645508 190.54504395 C157.97247239 191.66912922 159.07627736 192.79539606 160.17773438 193.9239502 C161.58356034 195.35694295 163.00814261 196.77147563 164.43481445 198.18371582 C166.41359269 200.18605094 168.24010089 202.22519093 170.04418945 204.38293457 C173.02465336 207.82788636 176.21676816 210.77506533 179.68481445 213.71887207 C183.21185529 216.8016673 186.4496534 220.16906672 189.73168945 223.50793457 C190.57731445 224.33293457 191.42293945 225.15793457 192.29418945 226.00793457 C194.31222847 228.07771818 196.17346687 230.18357153 198.04418945 232.38293457 C201.02465336 235.82788636 204.21676816 238.77506533 207.68481445 241.71887207 C211.21185529 244.8016673 214.4496534 248.16906672 217.73168945 251.50793457 C218.57731445 252.33293457 219.42293945 253.15793457 220.29418945 254.00793457 C222.86982126 256.64960822 225.23851602 259.4128794 227.5949707 262.25012207 C229.46322911 264.22425984 231.36272817 265.95603311 233.41918945 267.72668457 C237.96849614 271.65517804 242.19529811 275.8599721 246.41918945 280.13293457 C247.5184375 281.2389502 247.5184375 281.2389502 248.63989258 282.36730957 C250.00460834 283.74063941 251.36828181 285.11500654 252.73046875 286.49084473 C255.05764966 288.83647956 257.39427693 291.17249566 259.73168945 293.50793457 C283.73168945 317.50793457 283.73168945 317.50793457 286.46679688 320.24743652 C287.81093141 321.58896305 289.16317316 322.92257076 290.5324707 324.23840332 C291.96973529 325.62367384 293.3526183 327.06472057 294.73168945 328.50793457 C294.73168945 329.16793457 294.73168945 329.82793457 294.73168945 330.50793457 C295.26922852 330.71805176 295.80676758 330.92816895 296.3605957 331.14465332 C299.63507234 333.02734252 302.06340535 335.63006822 304.66918945 338.32043457 C305.1815918 338.84186035 305.69399414 339.36328613 306.22192383 339.9005127 C307.24132094 340.93804394 308.25852035 341.97773934 309.2734375 343.01965332 C310.62617824 344.4002506 311.99847993 345.7616074 313.37231445 347.12121582 C315.53221167 349.30614496 317.54526335 351.5515555 319.54418945 353.88293457 C322.74164701 357.51313074 326.09954518 360.69747118 329.78637695 363.82043457 C332.93448099 366.55132 335.81565375 369.53415559 338.73168945 372.50793457 C339.93825195 373.68355957 339.93825195 373.68355957 341.16918945 374.88293457 C343.38857063 377.15644699 345.46241095 379.48524416 347.54418945 381.88293457 C350.16044509 384.8637908 352.81415838 387.52820497 355.85668945 390.07043457 C363.63163381 396.70200476 369.2112095 405.19587493 370.60668945 415.44543457 C371.25425255 425.91976773 367.7233411 435.49299101 361.41918945 443.82043457 C354.07513925 451.16448477 345.67255558 454.63440343 335.35668945 454.94543457 C325.11173381 454.7116707 316.55692151 451.15074616 308.73168945 444.50793457 C307.73469239 443.37898244 306.75313058 442.23634478 305.78091431 441.08598328 C300.99285547 435.57266578 295.81271259 430.45682258 290.64331055 425.30603027 C289.53688923 424.19989158 288.43068916 423.09353156 287.32469177 421.98696899 C284.3415627 419.0035547 281.35537441 416.02321999 278.36860228 413.04345345 C275.23413331 409.91527149 272.10253017 406.78422315 268.97061157 403.65348816 C263.04309091 397.72906796 257.11302841 391.8071989 251.18203223 385.8862583 C244.44669921 379.16209885 237.7141999 372.43510526 230.98194385 365.70786536 C219.47254658 354.20714078 207.96106029 342.70851073 196.44715881 331.21229553 C195.96037678 330.7262531 195.47359475 330.24021066 194.97206175 329.73943967 C193.67877605 328.44813432 192.38545855 327.15686083 191.09213829 325.8655901 C188.63766796 323.41402434 186.18448823 320.96117264 183.73168945 318.50793457 C182.9344043 317.71064941 182.13711914 316.91336426 181.31567383 316.09191895 C78.73168945 213.50793457 78.73168945 213.50793457 76.0222168 210.78259277 C73.4628327 208.2409405 70.76202188 205.94735292 67.98950195 203.64465332 C66.02513717 201.78564374 64.30475297 199.89872731 62.54418945 197.85168457 C58.45268267 193.11360385 54.05531077 188.72110226 49.60668945 184.32043457 C48.82165039 183.53990723 48.03661133 182.75937988 47.2277832 181.9552002 C45.76655783 180.50259926 44.30429619 179.05103931 42.84057617 177.60095215 C40.46462934 175.24288406 38.09770288 172.8759687 35.73168945 170.50793457 C34.87381836 169.65006348 34.01594727 168.79219238 33.13208008 167.9083252 C-15.26831055 119.50793457 -15.26831055 119.50793457 -17.70214844 117.06970215 C-20.11096435 114.66501132 -22.52878653 112.26986002 -24.94993591 109.87760925 C-27.39663859 107.45794053 -29.83780189 105.03271301 -32.27880859 102.6072998 C-33.55989014 101.33628123 -34.84276025 100.06706277 -36.12744141 98.79968262 C-46.31962497 88.74076437 -54.32815086 80.2098869 -59.26831055 66.50793457 C-59.51709961 65.81828613 -59.76588867 65.1286377 -60.0222168 64.41809082 C-63.63656375 52.46294321 -60.8303526 40.71107431 -56.26831055 29.50793457 C-54.498123 26.2906187 -52.48795257 23.42406251 -50.26831055 20.50793457 C-49.79393555 19.62105957 -49.31956055 18.73418457 -48.83081055 17.82043457 C-37.73098829 1.39269762 -17.90614159 -0.08764177 0 0 Z " fill="#B4B4B4" transform="translate(268.268310546875,13.4920654296875)"/>
<path d="M0 0 C4.90720951 3.73359717 9.21335151 7.83470749 13.4375 12.3125 C14.241875 13.09625 15.04625 13.88 15.875 14.6875 C18.25406187 17.12458777 20.49688052 19.63447725 22.75 22.1875 C26.1180484 25.96261385 29.60866495 29.28328238 33.47265625 32.53515625 C36.38357324 35.16829189 38.8589311 38.14281789 41.421875 41.109375 C43.98808506 43.91430227 46.80334511 46.31542339 49.703125 48.765625 C51.90844957 50.7325361 53.59342083 53.00740103 55.4375 55.3125 C56.7131572 56.45562138 58.00676617 57.57885807 59.3125 58.6875 C61.93383654 60.9219234 64.25292255 63.15041928 66.4375 65.8125 C69.17988812 69.15268389 72.27814356 71.83792336 75.56640625 74.62890625 C78.14704594 76.95094322 80.2170944 79.64801328 82.4375 82.3125 C84.37591565 84.09600129 86.3589229 85.80893821 88.375 87.50390625 C90.84408995 89.66903627 93.12939437 91.97662768 95.4375 94.3125 C96.34628906 95.2096875 97.25507812 96.106875 98.19140625 97.03125 C99.11824219 97.9490625 100.04507813 98.866875 101 99.8125 C101.92941406 100.7303125 102.85882812 101.648125 103.81640625 102.59375 C106.4375 105.3125 106.4375 105.3125 108.5390625 107.953125 C110.31258989 110.15726192 112.05689066 111.79371935 114.25 113.5625 C123.02447859 121.16051218 128.25228952 129.47840536 129.81640625 141.13671875 C130.21984756 150.25969804 127.23133784 159.23114263 121.4375 166.3125 C113.46976155 174.38694924 104.86685521 178.71335845 93.5625 179.625 C82.70920091 179.22380801 73.03076082 173.86281832 65.40234375 166.29296875 C64.27383202 164.98965338 63.16740803 163.66682485 62.0859375 162.32421875 C59.14077015 158.72999793 55.7478276 155.5664816 52.4375 152.3125 C51.6125 151.466875 50.7875 150.62125 49.9375 149.75 C47.86771639 147.73196098 45.76186304 145.87072258 43.5625 144 C40.09477551 141.00071109 37.12385156 137.78324318 34.16015625 134.29296875 C31.41402594 131.13585296 28.42332729 128.24035007 25.4375 125.3125 C24.65375 124.508125 23.87 123.70375 23.0625 122.875 C20.78898758 120.65561883 18.46019041 118.5817785 16.0625 116.5 C12.45489698 113.32173155 9.29432023 109.98868097 6.19140625 106.32421875 C3.12409718 102.80603574 -0.23570939 99.58266439 -3.5625 96.3125 C-4.3875 95.466875 -5.2125 94.62125 -6.0625 93.75 C-8.70417365 91.1743682 -11.46744483 88.80567344 -14.3046875 86.44921875 C-16.27882527 84.58096034 -18.01059854 82.68146128 -19.78125 80.625 C-23.70974347 76.07569331 -27.91453753 71.84889135 -32.1875 67.625 C-32.92484375 66.89216797 -33.6621875 66.15933594 -34.421875 65.40429688 C-37.39388945 62.45092409 -40.36964288 59.50185553 -43.359375 56.56640625 C-51.3589791 48.38241411 -56.32130486 40.34068501 -56.875 28.75 C-56.71745776 19.11127932 -53.22714829 10.85353748 -46.984375 3.578125 C-33.43859649 -9.09373232 -15.12790643 -10.54808818 0 0 Z " fill="#B5B5B5" transform="translate(836.5625,616.6875)"/>
</svg>
