<svg xmlns="http://www.w3.org/2000/svg" version="1.1" xmlns:xlink="http://www.w3.org/1999/xlink" width="1000" height="1000"><style>
    #light-icon {
      display: inline;
    }
    #dark-icon {
      display: none;
    }

    @media (prefers-color-scheme: dark) {
      #light-icon {
        display: none;
      }
      #dark-icon {
        display: inline;
      }
    }
  </style><g id="light-icon"><svg xmlns="http://www.w3.org/2000/svg" version="1.1" xmlns:xlink="http://www.w3.org/1999/xlink" width="1000" height="1000"><g clip-path="url(#SvgjsClipPath1187)"><rect width="1000" height="1000" fill="#ffffff"></rect><g transform="matrix(3,0,0,3,50,50)"><svg xmlns="http://www.w3.org/2000/svg" version="1.1" xmlns:xlink="http://www.w3.org/1999/xlink" width="300" height="300"><svg xmlns="http://www.w3.org/2000/svg" viewBox="0 0 300 300" width="300" height="300">
  <!-- Hexagon shape - black outline -->
  <polygon points="150,25 260,88 260,212 150,275 40,212 40,88" fill="none" stroke="#000000" stroke-width="14" stroke-linejoin="miter"></polygon>
  
  <!-- Letter M - black -->
  <text x="150" y="165" fill="#000000" font-family="Arial, sans-serif" font-size="160" font-weight="bold" text-anchor="middle" dominant-baseline="middle">M</text>
</svg></svg></g></g><defs><clipPath id="SvgjsClipPath1187"><rect width="1000" height="1000" x="0" y="0" rx="400" ry="400"></rect></clipPath></defs></svg></g><g id="dark-icon"><svg xmlns="http://www.w3.org/2000/svg" version="1.1" xmlns:xlink="http://www.w3.org/1999/xlink" width="1000" height="1000"><g><g transform="matrix(3.3333333333333335,0,0,3.3333333333333335,0,0)" style="filter: invert(100%)"><svg xmlns="http://www.w3.org/2000/svg" version="1.1" xmlns:xlink="http://www.w3.org/1999/xlink" width="300" height="300"><svg xmlns="http://www.w3.org/2000/svg" viewBox="0 0 300 300" width="300" height="300">
  <!-- Hexagon shape - black outline -->
  <polygon points="150,25 260,88 260,212 150,275 40,212 40,88" fill="none" stroke="#000000" stroke-width="14" stroke-linejoin="miter"></polygon>
  
  <!-- Letter M - black -->
  <text x="150" y="165" fill="#000000" font-family="Arial, sans-serif" font-size="160" font-weight="bold" text-anchor="middle" dominant-baseline="middle">M</text>
</svg></svg></g></g></svg></g></svg>